Preview_Opsz14-wght_100.00_wdth_125.00.ufo
<glyph name="quotesingle" format="2">
  <advance width="486"/>
  <unicode hex="0027"/>
  <outline>
    <contour>
      <point x="234.0" y="964.0" type="line"/>
      <point x="187.0" y="1441.0" type="line"/>
      <point x="186.0" y="1494.0"/>
      <point x="209.0" y="1558.0"/>
      <point x="243.0" y="1558.0" type="qcurve" smooth="yes"/>
      <point x="277.0" y="1558.0"/>
      <point x="300.0" y="1494.0"/>
      <point x="299.0" y="1441.0" type="qcurve"/>
      <point x="251.0" y="964.0" type="line"/>
    </contour>
  </outline>
</glyph>
<glyph name="less" format="2">
  <advance width="1200"/>
  <unicode hex="003C"/>
  <outline>
    <contour>
      <point x="164.0" y="634.0" type="qcurve"/>
      <point x="165.0" y="634.0"/>
      <point x="851.0" y="1017.0"/>
      <point x="944.0" y="1077.0" type="qcurve" smooth="yes"/>
      <point x="984.0" y="1096.0"/>
      <point x="990.0" y="1012.0"/>
      <point x="945.0" y="998.0" type="qcurve" smooth="yes"/>
      <point x="776.0" y="907.0"/>
      <point x="403.0" y="684.0"/>
      <point x="309.0" y="635.0" type="qcurve"/>
      <point x="393.0" y="595.0"/>
      <point x="775.0" y="369.0"/>
      <point x="943.0" y="274.0" type="qcurve" smooth="yes"/>
      <point x="987.0" y="259.0"/>
      <point x="987.0" y="177.0"/>
      <point x="945.0" y="194.0" type="qcurve" smooth="yes"/>
      <point x="848.0" y="255.0"/>
      <point x="164.0" y="634.0"/>
    </contour>
  </outline>
</glyph>
<glyph name="equal" format="2">
  <advance width="1200"/>
  <unicode hex="003D"/>
  <outline>
    <contour>
      <point x="134.0" y="404.0" type="line"/>
      <point x="134.0" y="475.0" type="line"/>
      <point x="597.0" y="472.0" type="line"/>
      <point x="1065.0" y="475.0" type="line"/>
      <point x="1065.0" y="404.0" type="line"/>
      <point x="597.0" y="408.0" type="line"/>
    </contour>
    <contour>
      <point x="134.0" y="757.0" type="line"/>
      <point x="134.0" y="828.0" type="line"/>
      <point x="597.0" y="824.0" type="line"/>
      <point x="1065.0" y="828.0" type="line"/>
      <point x="1065.0" y="757.0" type="line"/>
      <point x="597.0" y="760.0" type="line"/>
    </contour>
  </outline>
</glyph>
<glyph name="A" format="2">
  <advance width="2038"/>
  <unicode hex="0041"/>
  <outline>
    <contour>
      <point x="2.0" y="0.0" type="line"/>
      <point x="4.0" y="48.0" type="line"/>
      <point x="239.0" y="83.0" type="line"/>
      <point x="476.0" y="549.0" type="line"/>
      <point x="986.0" y="1508.0" type="line"/>
      <point x="1087.0" y="1508.0" type="line"/>
      <point x="1526.0" y="591.0" type="line"/>
      <point x="1786.0" y="83.0" type="line"/>
      <point x="2036.0" y="48.0" type="line"/>
      <point x="2034.0" y="0.0" type="line"/>
      <point x="1430.0" y="0.0" type="line"/>
      <point x="1433.0" y="48.0" type="line"/>
      <point x="1687.0" y="88.0" type="line"/>
      <point x="1454.0" y="563.0" type="line"/>
      <point x="1017.0" y="1481.0" type="line"/>
      <point x="563.0" y="527.0" type="line"/>
      <point x="330.0" y="88.0" type="line"/>
      <point x="588.0" y="48.0" type="line"/>
      <point x="586.0" y="0.0" type="line"/>
    </contour>
    <contour>
      <point x="1035.0" y="589.0" type="line"/>
      <point x="1479.0" y="596.0" type="line"/>
      <point x="1516.0" y="519.0" type="line"/>
      <point x="1033.0" y="511.0" type="line"/>
    </contour>
    <contour>
      <point x="519.0" y="517.0" type="line"/>
      <point x="555.0" y="595.0" type="line"/>
      <point x="1035.0" y="589.0" type="line"/>
      <point x="1033.0" y="511.0" type="line"/>
    </contour>
  </outline>
</glyph>
<glyph name="C" format="2">
  <advance width="1880"/>
  <unicode hex="0043"/>
  <outline>
    <contour>
      <point x="105.0" y="728.0" type="qcurve" smooth="yes"/>
      <point x="105.0" y="1117.0"/>
      <point x="672.0" y="1519.0"/>
      <point x="1069.0" y="1519.0" type="qcurve" smooth="yes"/>
      <point x="1332.0" y="1519.0"/>
      <point x="1613.0" y="1436.0"/>
      <point x="1709.0" y="1368.0" type="qcurve"/>
      <point x="1761.0" y="1500.0" type="line"/>
      <point x="1836.0" y="1500.0" type="line"/>
      <point x="1836.0" y="1041.0" type="line"/>
      <point x="1775.0" y="1041.0" type="line"/>
      <point x="1755.0" y="1157.0" type="line" smooth="yes"/>
      <point x="1718.0" y="1315.0"/>
      <point x="1365.0" y="1455.0"/>
      <point x="1045.0" y="1455.0" type="qcurve" smooth="yes"/>
      <point x="687.0" y="1455.0"/>
      <point x="183.0" y="1079.0"/>
      <point x="187.0" y="708.0" type="qcurve" smooth="yes"/>
      <point x="189.0" y="420.0"/>
      <point x="673.0" y="41.0"/>
      <point x="1071.0" y="41.0" type="qcurve" smooth="yes"/>
      <point x="1381.0" y="41.0"/>
      <point x="1761.0" y="227.0"/>
      <point x="1862.0" y="328.0" type="qcurve"/>
      <point x="1892.0" y="267.0" type="line"/>
      <point x="1821.0" y="180.0"/>
      <point x="1432.0" y="-29.0"/>
      <point x="1024.0" y="-29.0" type="qcurve" smooth="yes"/>
      <point x="609.0" y="-29.0"/>
      <point x="105.0" y="398.0"/>
    </contour>
  </outline>
</glyph>
<glyph name="D" format="2">
  <advance width="2111"/>
  <unicode hex="0044"/>
  <outline>
    <contour>
      <point x="136.0" y="0.0" type="line"/>
      <point x="136.0" y="48.0" type="line"/>
      <point x="404.0" y="83.0" type="line"/>
      <point x="406.0" y="754.0" type="line"/>
      <point x="404.0" y="1419.0" type="line"/>
      <point x="136.0" y="1453.0" type="line"/>
      <point x="136.0" y="1500.0" type="line"/>
      <point x="1113.0" y="1500.0" type="line" smooth="yes"/>
      <point x="1511.0" y="1500.0"/>
      <point x="2010.0" y="1102.0"/>
      <point x="2010.0" y="777.0" type="qcurve" smooth="yes"/>
      <point x="2010.0" y="426.0"/>
      <point x="1500.0" y="-9.0"/>
      <point x="1068.0" y="-6.0" type="qcurve" smooth="yes"/>
    </contour>
    <contour>
      <point x="485.0" y="58.0" type="line"/>
      <point x="532.0" y="53.0"/>
      <point x="859.0" y="42.0"/>
      <point x="1004.0" y="42.0" type="qcurve" smooth="yes"/>
      <point x="1431.0" y="42.0"/>
      <point x="1911.0" y="404.0"/>
      <point x="1911.0" y="767.0" type="qcurve" smooth="yes"/>
      <point x="1911.0" y="1120.0"/>
      <point x="1421.0" y="1451.0"/>
      <point x="947.0" y="1451.0" type="qcurve" smooth="yes"/>
      <point x="831.0" y="1451.0"/>
      <point x="539.0" y="1444.0"/>
      <point x="485.0" y="1439.0" type="qcurve"/>
      <point x="481.0" y="758.0" type="line"/>
    </contour>
  </outline>
</glyph>
<glyph name="E" format="2">
  <advance width="1820"/>
  <unicode hex="0045"/>
  <outline>
    <contour>
      <point x="136.0" y="0.0" type="line"/>
      <point x="136.0" y="48.0" type="line"/>
      <point x="405.0" y="81.0" type="line"/>
      <point x="406.0" y="755.0" type="line"/>
      <point x="405.0" y="1419.0" type="line"/>
      <point x="136.0" y="1452.0" type="line"/>
      <point x="136.0" y="1500.0" type="line"/>
      <point x="1611.0" y="1500.0" type="line"/>
      <point x="1611.0" y="1160.0" type="line"/>
      <point x="1541.0" y="1160.0" type="line"/>
      <point x="1484.0" y="1443.0" type="line"/>
      <point x="513.0" y="1443.0" type="line"/>
      <point x="487.0" y="1417.0" type="line"/>
      <point x="485.0" y="784.0" type="line"/>
      <point x="487.0" y="91.0" type="line"/>
      <point x="512.0" y="64.0" type="line"/>
      <point x="1567.0" y="64.0" type="line"/>
      <point x="1667.0" y="390.0" type="line"/>
      <point x="1736.0" y="390.0" type="line"/>
      <point x="1693.0" y="0.0" type="line"/>
    </contour>
    <contour>
      <point x="457.0" y="750.0" type="line"/>
      <point x="457.0" y="821.0" type="line"/>
      <point x="1320.0" y="817.0" type="line"/>
      <point x="1360.0" y="1000.0" type="line"/>
      <point x="1410.0" y="1000.0" type="line"/>
      <point x="1410.0" y="568.0" type="line"/>
      <point x="1360.0" y="568.0" type="line"/>
      <point x="1320.0" y="756.0" type="line"/>
    </contour>
  </outline>
</glyph>
<glyph name="V" format="2">
  <advance width="2103"/>
  <unicode hex="0056"/>
  <outline>
    <contour>
      <point x="15.0" y="1451.0" type="line"/>
      <point x="15.0" y="1500.0" type="line"/>
      <point x="647.0" y="1500.0" type="line"/>
      <point x="647.0" y="1451.0" type="line"/>
      <point x="377.0" y="1424.0" type="line"/>
      <point x="663.0" y="835.0" type="line"/>
      <point x="1061.0" y="35.0" type="line"/>
      <point x="1434.0" y="818.0" type="line"/>
      <point x="1712.0" y="1417.0" type="line"/>
      <point x="1459.0" y="1451.0" type="line"/>
      <point x="1457.0" y="1500.0" type="line"/>
      <point x="2069.0" y="1500.0" type="line"/>
      <point x="2070.0" y="1451.0" type="line"/>
      <point x="1821.0" y="1422.0" type="line"/>
      <point x="1516.0" y="808.0" type="line"/>
      <point x="1101.0" y="-7.0" type="line"/>
      <point x="1014.0" y="-7.0" type="line"/>
      <point x="594.0" y="800.0" type="line"/>
      <point x="273.0" y="1422.0" type="line"/>
    </contour>
  </outline>
</glyph>
<glyph name="l" format="2">
  <advance width="753"/>
  <unicode hex="006C"/>
  <outline>
    <contour>
      <point x="118.0" y="0.0" type="line"/>
      <point x="118.0" y="47.0" type="line"/>
      <point x="357.0" y="71.0" type="line"/>
      <point x="360.0" y="527.0" type="line"/>
      <point x="359.0" y="1428.0" type="line"/>
      <point x="116.0" y="1449.0" type="line"/>
      <point x="116.0" y="1500.0" type="line"/>
      <point x="419.0" y="1514.0" type="line"/>
      <point x="427.0" y="1509.0" type="line"/>
      <point x="436.0" y="1488.0" type="line"/>
      <point x="435.0" y="527.0" type="line"/>
      <point x="440.0" y="71.0" type="line"/>
      <point x="670.0" y="47.0" type="line"/>
      <point x="670.0" y="0.0" type="line"/>
    </contour>
  </outline>
</glyph>
<glyph name="o" format="2">
  <advance width="1602"/>
  <unicode hex="006F"/>
  <outline>
    <contour>
      <point x="94.0" y="500.0" type="qcurve" smooth="yes"/>
      <point x="94.0" y="717.0"/>
      <point x="490.0" y="1031.0"/>
      <point x="798.0" y="1031.0" type="qcurve" smooth="yes"/>
      <point x="1111.0" y="1031.0"/>
      <point x="1508.0" y="737.0"/>
      <point x="1508.0" y="506.0" type="qcurve" smooth="yes"/>
      <point x="1508.0" y="290.0"/>
      <point x="1115.0" y="-31.0"/>
      <point x="806.0" y="-31.0" type="qcurve" smooth="yes"/>
      <point x="497.0" y="-31.0"/>
      <point x="94.0" y="267.0"/>
    </contour>
    <contour>
      <point x="175.0" y="523.0" type="qcurve" smooth="yes"/>
      <point x="177.0" y="316.0"/>
      <point x="522.0" y="20.0"/>
      <point x="800.0" y="20.0" type="qcurve" smooth="yes"/>
      <point x="1097.0" y="20.0"/>
      <point x="1425.0" y="291.0"/>
      <point x="1425.0" y="507.0" type="qcurve" smooth="yes"/>
      <point x="1425.0" y="706.0"/>
      <point x="1082.0" y="972.0"/>
      <point x="803.0" y="972.0" type="qcurve" smooth="yes"/>
      <point x="501.0" y="972.0"/>
      <point x="174.0" y="728.0"/>
    </contour>
  </outline>
</glyph>
<glyph name="q" format="2">
  <advance width="1663"/>
  <unicode hex="0071"/>
  <outline>
    <contour>
      <point x="90.0" y="491.0" type="qcurve" smooth="yes"/>
      <point x="90.0" y="738.0"/>
      <point x="464.0" y="1035.0"/>
      <point x="798.0" y="1035.0" type="qcurve" smooth="yes"/>
      <point x="961.0" y="1035.0"/>
      <point x="1213.0" y="970.0"/>
      <point x="1281.0" y="927.0" type="qcurve"/>
      <point x="1329.0" y="1019.0" type="line"/>
      <point x="1620.0" y="1000.0" type="line"/>
      <point x="1620.0" y="953.0" type="line"/>
      <point x="1354.0" y="936.0" type="line"/>
      <point x="1351.0" y="435.0" type="line"/>
      <point x="1353.0" y="-413.0" type="line"/>
      <point x="1598.0" y="-440.0" type="line"/>
      <point x="1598.0" y="-480.0" type="line"/>
      <point x="984.0" y="-480.0" type="line"/>
      <point x="984.0" y="-440.0" type="line"/>
      <point x="1270.0" y="-413.0" type="line"/>
      <point x="1274.0" y="179.0" type="line"/>
      <point x="1213.0" y="107.0"/>
      <point x="921.0" y="-27.0"/>
      <point x="735.0" y="-27.0" type="qcurve" smooth="yes"/>
      <point x="446.0" y="-27.0"/>
      <point x="90.0" y="255.0"/>
    </contour>
    <contour>
      <point x="171.0" y="495.0" type="qcurve" smooth="yes"/>
      <point x="171.0" y="271.0"/>
      <point x="463.0" y="32.0"/>
      <point x="716.0" y="32.0" type="qcurve" smooth="yes"/>
      <point x="929.0" y="32.0"/>
      <point x="1213.0" y="165.0"/>
      <point x="1271.0" y="238.0" type="qcurve"/>
      <point x="1275.0" y="828.0" type="line"/>
      <point x="1211.0" y="894.0"/>
      <point x="925.0" y="983.0"/>
      <point x="778.0" y="983.0" type="qcurve" smooth="yes"/>
      <point x="477.0" y="983.0"/>
      <point x="171.0" y="712.0"/>
    </contour>
  </outline>
</glyph>
<glyph name="threesuperior" format="2">
  <advance width="841"/>
  <unicode hex="00B3"/>
  <outline>
    <contour>
      <point x="73.0" y="747.0" type="qcurve"/>
      <point x="104.0" y="785.0" type="line"/>
      <point x="170.0" y="740.0"/>
      <point x="311.0" y="709.0"/>
      <point x="388.0" y="709.0" type="qcurve" smooth="yes"/>
      <point x="526.0" y="709.0"/>
      <point x="695.0" y="808.0"/>
      <point x="695.0" y="888.0" type="qcurve" smooth="yes"/>
      <point x="695.0" y="979.0"/>
      <point x="492.0" y="1079.0"/>
      <point x="335.0" y="1081.0" type="qcurve" smooth="yes"/>
      <point x="258.0" y="1081.0" type="line"/>
      <point x="227.0" y="1131.0" type="line"/>
      <point x="324.0" y="1134.0" type="line" smooth="yes"/>
      <point x="479.0" y="1138.0"/>
      <point x="671.0" y="1252.0"/>
      <point x="671.0" y="1322.0" type="qcurve" smooth="yes"/>
      <point x="671.0" y="1392.0"/>
      <point x="538.0" y="1459.0"/>
      <point x="444.0" y="1459.0" type="qcurve" smooth="yes"/>
      <point x="356.0" y="1459.0"/>
      <point x="189.0" y="1415.0"/>
      <point x="133.0" y="1378.0" type="qcurve"/>
      <point x="106.0" y="1418.0" type="line"/>
      <point x="172.0" y="1464.0"/>
      <point x="330.0" y="1520.0"/>
      <point x="440.0" y="1520.0" type="qcurve" smooth="yes"/>
      <point x="594.0" y="1520.0"/>
      <point x="740.0" y="1410.0"/>
      <point x="740.0" y="1329.0" type="qcurve" smooth="yes"/>
      <point x="740.0" y="1244.0"/>
      <point x="624.0" y="1139.0"/>
      <point x="504.0" y="1117.0" type="qcurve"/>
      <point x="504.0" y="1113.0" type="line"/>
      <point x="630.0" y="1106.0"/>
      <point x="770.0" y="1001.0"/>
      <point x="770.0" y="895.0" type="qcurve" smooth="yes"/>
      <point x="770.0" y="793.0"/>
      <point x="569.0" y="649.0"/>
      <point x="389.0" y="649.0" type="qcurve" smooth="yes"/>
      <point x="295.0" y="649.0"/>
      <point x="136.0" y="701.0"/>
    </contour>
  </outline>
</glyph>
<glyph name="micro" format="2">
  <advance width="1796"/>
  <unicode hex="00B5"/>
  <outline>
    <contour>
      <point x="182.0" y="-337.0" type="line"/>
      <point x="218.0" y="-315.0" type="line"/>
      <point x="257.0" y="-157.0"/>
      <point x="331.0" y="192.0"/>
      <point x="351.0" y="281.0" type="qcurve" smooth="yes"/>
      <point x="488.0" y="906.0" type="line"/>
      <point x="210.0" y="906.0" type="line"/>
      <point x="210.0" y="952.0" type="line"/>
      <point x="533.0" y="1000.0" type="line"/>
      <point x="559.0" y="1000.0" type="line"/>
      <point x="580.0" y="947.0" type="line"/>
      <point x="431.0" y="254.0" type="line" smooth="yes"/>
      <point x="413.0" y="171.0"/>
      <point x="499.0" y="52.0"/>
      <point x="673.0" y="52.0" type="qcurve" smooth="yes"/>
      <point x="892.0" y="52.0"/>
      <point x="1321.0" y="229.0"/>
      <point x="1420.0" y="339.0" type="qcurve"/>
      <point x="1532.0" y="851.0" type="line"/>
      <point x="1469.0" y="981.0" type="line"/>
      <point x="1599.0" y="1004.0" type="line"/>
      <point x="1631.0" y="925.0" type="line"/>
      <point x="1513.0" y="392.0" type="line"/>
      <point x="1466.0" y="97.0" type="line"/>
      <point x="1725.0" y="101.0" type="line"/>
      <point x="1722.0" y="53.0" type="line"/>
      <point x="1423.0" y="-7.0" type="line"/>
      <point x="1381.0" y="61.0" type="line"/>
      <point x="1410.0" y="258.0" type="line"/>
      <point x="1323.0" y="164.0"/>
      <point x="899.0" y="-18.0"/>
      <point x="639.0" y="-18.0" type="qcurve" smooth="yes"/>
      <point x="527.0" y="-18.0"/>
      <point x="403.0" y="26.0"/>
      <point x="382.0" y="66.0" type="qcurve"/>
      <point x="312.0" y="-288.0" type="line"/>
      <point x="523.0" y="-292.0" type="line"/>
      <point x="515.0" y="-341.0" type="line"/>
      <point x="205.0" y="-379.0" type="line"/>
    </contour>
  </outline>
</glyph>
<glyph name="germandbls" format="2">
  <advance width="1801"/>
  <unicode hex="00DF"/>
  <outline>
    <contour>
      <point x="1414.0" y="1246.0" type="qcurve" smooth="yes"/>
      <point x="1414.0" y="1146.0"/>
      <point x="1235.0" y="1007.0"/>
      <point x="1089.0" y="956.0" type="qcurve" smooth="yes"/>
      <point x="998.0" y="922.0"/>
      <point x="859.0" y="836.0"/>
      <point x="859.0" y="771.0" type="qcurve" smooth="yes"/>
      <point x="859.0" y="693.0"/>
      <point x="1045.0" y="618.0"/>
      <point x="1229.0" y="569.0" type="qcurve" smooth="yes"/>
      <point x="1481.0" y="507.0"/>
      <point x="1686.0" y="387.0"/>
      <point x="1686.0" y="270.0" type="qcurve" smooth="yes"/>
      <point x="1686.0" y="133.0"/>
      <point x="1419.0" y="-18.0"/>
      <point x="1179.0" y="-18.0" type="qcurve" smooth="yes"/>
      <point x="1044.0" y="-18.0"/>
      <point x="843.0" y="41.0"/>
      <point x="767.0" y="85.0" type="qcurve"/>
      <point x="712.0" y="12.0" type="line"/>
      <point x="665.0" y="12.0" type="line"/>
      <point x="665.0" y="351.0" type="line"/>
      <point x="732.0" y="351.0" type="line"/>
      <point x="750.0" y="262.0" type="line" smooth="yes"/>
      <point x="774.0" y="146.0"/>
      <point x="1024.0" y="34.0"/>
      <point x="1195.0" y="34.0" type="qcurve" smooth="yes"/>
      <point x="1403.0" y="34.0"/>
      <point x="1590.0" y="160.0"/>
      <point x="1590.0" y="276.0" type="qcurve" smooth="yes"/>
      <point x="1590.0" y="360.0"/>
      <point x="1376.0" y="466.0"/>
      <point x="1147.0" y="516.0" type="qcurve" smooth="yes"/>
      <point x="904.0" y="569.0"/>
      <point x="772.0" y="688.0"/>
      <point x="772.0" y="779.0" type="qcurve" smooth="yes"/>
      <point x="772.0" y="852.0"/>
      <point x="891.0" y="958.0"/>
      <point x="1068.0" y="1019.0" type="qcurve" smooth="yes"/>
      <point x="1180.0" y="1056.0"/>
      <point x="1319.0" y="1162.0"/>
      <point x="1319.0" y="1247.0" type="qcurve" smooth="yes"/>
      <point x="1319.0" y="1344.0"/>
      <point x="1116.0" y="1452.0"/>
      <point x="932.0" y="1452.0" type="qcurve" smooth="yes"/>
      <point x="695.0" y="1452.0"/>
      <point x="469.0" y="1289.0"/>
      <point x="470.0" y="1118.0" type="qcurve"/>
      <point x="465.0" y="527.0" type="line"/>
      <point x="464.0" y="67.0" type="line"/>
      <point x="425.0" y="0.0" type="line"/>
      <point x="113.0" y="0.0" type="line"/>
      <point x="113.0" y="44.0" type="line"/>
      <point x="378.0" y="71.0" type="line"/>
      <point x="384.0" y="527.0" type="line"/>
      <point x="385.0" y="1112.0" type="line" smooth="yes"/>
      <point x="385.0" y="1306.0"/>
      <point x="642.0" y="1520.0"/>
      <point x="944.0" y="1520.0" type="qcurve" smooth="yes"/>
      <point x="1131.0" y="1520.0"/>
      <point x="1414.0" y="1379.0"/>
    </contour>
  </outline>
</glyph>
<glyph name="ring" format="2">
  <advance width="1024"/>
  <unicode hex="02DA"/>
  <outline>
    <contour>
      <point x="272.0" y="1307.0" type="qcurve" smooth="yes"/>
      <point x="272.0" y="1384.0"/>
      <point x="412.0" y="1491.0"/>
      <point x="512.0" y="1491.0" type="qcurve" smooth="yes"/>
      <point x="612.0" y="1491.0"/>
      <point x="752.0" y="1384.0"/>
      <point x="752.0" y="1307.0" type="qcurve" smooth="yes"/>
      <point x="752.0" y="1230.0"/>
      <point x="612.0" y="1123.0"/>
      <point x="512.0" y="1123.0" type="qcurve" smooth="yes"/>
      <point x="412.0" y="1123.0"/>
      <point x="272.0" y="1230.0"/>
    </contour>
    <contour>
      <point x="348.0" y="1307.0" type="qcurve" smooth="yes"/>
      <point x="348.0" y="1246.0"/>
      <point x="439.0" y="1173.0"/>
      <point x="512.0" y="1173.0" type="qcurve" smooth="yes"/>
      <point x="588.0" y="1173.0"/>
      <point x="676.0" y="1241.0"/>
      <point x="676.0" y="1307.0" type="qcurve" smooth="yes"/>
      <point x="676.0" y="1368.0"/>
      <point x="585.0" y="1441.0"/>
      <point x="512.0" y="1441.0" type="qcurve" smooth="yes"/>
      <point x="436.0" y="1441.0"/>
      <point x="348.0" y="1373.0"/>
    </contour>
  </outline>
</glyph>
<glyph name="tonos" format="2">
  <advance width="874"/>
  <unicode hex="0384"/>
  <anchor x="396.0" y="1000.0" name="_GRKtop"/>
  <outline>
    <contour>
      <point x="414.0" y="1160.0" type="line"/>
      <point x="378.0" y="1172.0" type="line"/>
      <point x="543.0" y="1664.0" type="line"/>
      <point x="638.0" y="1655.0" type="line"/>
      <point x="658.0" y="1629.0" type="line"/>
    </contour>
  </outline>
</glyph>
<glyph name="Delta" format="2">
  <advance width="1694"/>
  <unicode hex="0394"/>
  <outline>
    <contour>
      <point x="17.0" y="0.0" type="line"/>
      <point x="19.0" y="47.0" type="line"/>
      <point x="270.0" y="548.0" type="line"/>
      <point x="801.0" y="1508.0" type="line"/>
      <point x="902.0" y="1508.0" type="line"/>
      <point x="1353.0" y="614.0" type="line"/>
      <point x="1633.0" y="47.0" type="line"/>
      <point x="1631.0" y="0.0" type="line"/>
    </contour>
    <contour>
      <point x="122.0" y="70.0" type="line"/>
      <point x="831.0" y="60.0" type="line"/>
      <point x="1523.0" y="73.0" type="line"/>
      <point x="1292.0" y="569.0" type="line"/>
      <point x="832.0" y="1470.0" type="line"/>
      <point x="351.0" y="527.0" type="line"/>
    </contour>
  </outline>
</glyph>
<glyph name="Xi" format="2">
  <advance width="1926"/>
  <unicode hex="039E"/>
  <guideline x="685.0" y="829.0" angle="90.0" identifier="GCiNqpylsp"/>
  <outline>
    <contour>
      <point x="121.0" y="0.0" type="line"/>
      <point x="75.0" y="389.0" type="line"/>
      <point x="136.0" y="389.0" type="line"/>
      <point x="226.0" y="77.0" type="line"/>
      <point x="970.0" y="75.0" type="line"/>
      <point x="1716.0" y="77.0" type="line"/>
      <point x="1805.0" y="389.0" type="line"/>
      <point x="1866.0" y="389.0" type="line"/>
      <point x="1821.0" y="0.0" type="line"/>
    </contour>
    <contour>
      <point x="435.0" y="530.0" type="line"/>
      <point x="435.0" y="965.0" type="line"/>
      <point x="495.0" y="965.0" type="line"/>
      <point x="531.0" y="786.0" type="line"/>
      <point x="972.0" y="776.0" type="line"/>
      <point x="1411.0" y="786.0" type="line"/>
      <point x="1447.0" y="965.0" type="line"/>
      <point x="1507.0" y="965.0" type="line"/>
      <point x="1507.0" y="530.0" type="line"/>
      <point x="1447.0" y="530.0" type="line"/>
      <point x="1411.0" y="707.0" type="line"/>
      <point x="972.0" y="717.0" type="line"/>
      <point x="531.0" y="707.0" type="line"/>
      <point x="495.0" y="530.0" type="line"/>
    </contour>
    <contour>
      <point x="125.0" y="1194.0" type="line"/>
      <point x="125.0" y="1500.0" type="line"/>
      <point x="1817.0" y="1500.0" type="line"/>
      <point x="1817.0" y="1194.0" type="line"/>
      <point x="1765.0" y="1194.0" type="line"/>
      <point x="1703.0" y="1423.0" type="line"/>
      <point x="970.0" y="1425.0" type="line"/>
      <point x="238.0" y="1423.0" type="line"/>
      <point x="177.0" y="1194.0" type="line"/>
    </contour>
  </outline>
</glyph>
<glyph name="Sigma" format="2">
  <advance width="1701"/>
  <unicode hex="03A3"/>
  <outline>
    <contour>
      <point x="89.0" y="0.0" type="line"/>
      <point x="73.0" y="48.0" type="line"/>
      <point x="729.0" y="757.0" type="line"/>
      <point x="144.0" y="1449.0" type="line"/>
      <point x="144.0" y="1500.0" type="line"/>
      <point x="1570.0" y="1500.0" type="line"/>
      <point x="1570.0" y="1120.0" type="line"/>
      <point x="1529.0" y="1120.0" type="line"/>
      <point x="1451.0" y="1433.0" type="line"/>
      <point x="303.0" y="1433.0" type="line"/>
      <point x="299.0" y="1423.0" type="line"/>
      <point x="850.0" y="778.0" type="line"/>
      <point x="850.0" y="758.0" type="line"/>
      <point x="239.0" y="71.0" type="line"/>
      <point x="244.0" y="59.0" type="line"/>
      <point x="1464.0" y="59.0" type="line"/>
      <point x="1557.0" y="371.0" type="line"/>
      <point x="1622.0" y="371.0" type="line"/>
      <point x="1578.0" y="0.0" type="line"/>
    </contour>
  </outline>
</glyph>
<glyph name="upsilon" format="2">
  <advance width="1637"/>
  <unicode hex="03C5"/>
  <anchor x="817.0" y="1000.0" name="GRKtop"/>
  <outline>
    <contour>
      <point x="906.0" y="-18.0" type="qcurve" smooth="yes"/>
      <point x="639.0" y="-18.0"/>
      <point x="334.0" y="181.0"/>
      <point x="332.0" y="401.0" type="qcurve" smooth="yes"/>
      <point x="327.0" y="721.0" type="line" smooth="yes"/>
      <point x="326.0" y="845.0"/>
      <point x="282.0" y="910.0"/>
      <point x="213.0" y="915.0" type="qcurve"/>
      <point x="61.0" y="928.0" type="line"/>
      <point x="61.0" y="979.0" type="line"/>
      <point x="230.0" y="1001.0" type="line"/>
      <point x="333.0" y="1004.0"/>
      <point x="425.0" y="885.0"/>
      <point x="425.0" y="799.0" type="qcurve" smooth="yes"/>
      <point x="426.0" y="407.0" type="line" smooth="yes"/>
      <point x="425.0" y="228.0"/>
      <point x="659.0" y="56.0"/>
      <point x="890.0" y="56.0" type="qcurve" smooth="yes"/>
      <point x="1147.0" y="56.0"/>
      <point x="1443.0" y="298.0"/>
      <point x="1443.0" y="497.0" type="qcurve" smooth="yes"/>
      <point x="1443.0" y="673.0"/>
      <point x="1293.0" y="916.0"/>
      <point x="1206.0" y="985.0" type="qcurve"/>
      <point x="1266.0" y="1027.0" type="line"/>
      <point x="1398.0" y="892.0"/>
      <point x="1533.0" y="617.0"/>
      <point x="1533.0" y="472.0" type="qcurve" smooth="yes"/>
      <point x="1533.0" y="259.0"/>
      <point x="1191.0" y="-18.0"/>
    </contour>
  </outline>
</glyph>
<glyph name="Icyr" format="2">
  <advance width="2298"/>
  <unicode hex="0418"/>
  <guideline x="739.0" y="930.0" angle="90.0" identifier="jpSOnFR6u4"/>
  <guideline x="880.0" y="783.0" angle="90.0" identifier="3fHus3tMSg"/>
  <guideline x="953.0" y="742.0" angle="0" identifier="rmoGi5h6UR"/>
  <outline>
    <contour>
      <point x="1535.0" y="0.0" type="line"/>
      <point x="1535.0" y="48.0" type="line"/>
      <point x="1810.0" y="83.0" type="line"/>
      <point x="1812.0" y="754.0" type="line"/>
      <point x="1810.0" y="1419.0" type="line"/>
      <point x="1535.0" y="1453.0" type="line"/>
      <point x="1535.0" y="1500.0" type="line"/>
      <point x="2162.0" y="1500.0" type="line"/>
      <point x="2162.0" y="1453.0" type="line"/>
      <point x="1894.0" y="1419.0" type="line"/>
      <point x="1892.0" y="754.0" type="line"/>
      <point x="1894.0" y="83.0" type="line"/>
      <point x="2162.0" y="48.0" type="line"/>
      <point x="2162.0" y="0.0" type="line"/>
    </contour>
    <contour>
      <point x="136.0" y="0.0" type="line"/>
      <point x="136.0" y="48.0" type="line"/>
      <point x="404.0" y="83.0" type="line"/>
      <point x="406.0" y="754.0" type="line"/>
      <point x="404.0" y="1419.0" type="line"/>
      <point x="136.0" y="1453.0" type="line"/>
      <point x="136.0" y="1500.0" type="line"/>
      <point x="763.0" y="1500.0" type="line"/>
      <point x="763.0" y="1453.0" type="line"/>
      <point x="488.0" y="1419.0" type="line"/>
      <point x="486.0" y="754.0" type="line"/>
      <point x="488.0" y="83.0" type="line"/>
      <point x="763.0" y="48.0" type="line"/>
      <point x="763.0" y="0.0" type="line"/>
    </contour>
    <contour>
      <point x="485.0" y="238.0" type="line"/>
      <point x="427.0" y="282.0" type="line"/>
      <point x="1146.0" y="776.0" type="line"/>
      <point x="1815.0" y="1258.0" type="line"/>
      <point x="1873.0" y="1213.0" type="line"/>
      <point x="1191.0" y="747.0" type="line"/>
    </contour>
  </outline>
</glyph>
<glyph name="Pe" format="2">
  <advance width="2278"/>
  <unicode hex="041F"/>
  <outline>
    <contour>
      <point x="1790.0" y="1425.0" type="line"/>
      <point x="1768.0" y="1443.0" type="line"/>
      <point x="510.0" y="1443.0" type="line"/>
      <point x="488.0" y="1425.0" type="line"/>
      <point x="486.0" y="754.0" type="line"/>
      <point x="488.0" y="83.0" type="line"/>
      <point x="763.0" y="48.0" type="line"/>
      <point x="763.0" y="0.0" type="line"/>
      <point x="136.0" y="0.0" type="line"/>
      <point x="136.0" y="48.0" type="line"/>
      <point x="404.0" y="83.0" type="line"/>
      <point x="406.0" y="754.0" type="line"/>
      <point x="404.0" y="1419.0" type="line"/>
      <point x="136.0" y="1453.0" type="line"/>
      <point x="136.0" y="1500.0" type="line"/>
      <point x="2142.0" y="1500.0" type="line"/>
      <point x="2142.0" y="1453.0" type="line"/>
      <point x="1874.0" y="1419.0" type="line"/>
      <point x="1871.0" y="754.0" type="line"/>
      <point x="1874.0" y="83.0" type="line"/>
      <point x="2142.0" y="48.0" type="line"/>
      <point x="2142.0" y="0.0" type="line"/>
      <point x="1515.0" y="0.0" type="line"/>
      <point x="1515.0" y="48.0" type="line"/>
      <point x="1790.0" y="83.0" type="line"/>
      <point x="1792.0" y="754.0" type="line"/>
    </contour>
  </outline>
</glyph>
<glyph name="Ef" format="2">
  <advance width="2360"/>
  <unicode hex="0424"/>
  <outline>
    <contour>
      <point x="1180.0" y="225.0" type="qcurve"/>
      <point x="1180.0" y="304.0" type="line"/>
      <point x="1737.0002024975" y="307.000001125"/>
      <point x="2183.0" y="540.4154589372"/>
      <point x="2183.0" y="769.0" type="qcurve" smooth="yes"/>
      <point x="2183.0" y="995.7553763441"/>
      <point x="1737.0" y="1204.0"/>
      <point x="1180.0" y="1204.0" type="qcurve"/>
      <point x="1180.0" y="1283.0" type="line"/>
      <point x="1813.0" y="1283.0"/>
      <point x="2285.0" y="1007.0"/>
      <point x="2285.0" y="780.0" type="qcurve" smooth="yes"/>
      <point x="2285.0" y="501.0"/>
      <point x="1771.0" y="239.0"/>
    </contour>
    <contour>
      <point x="1180.0" y="225.0" type="line"/>
      <point x="559.0" y="225.0"/>
      <point x="75.0" y="491.0"/>
      <point x="75.0" y="728.0" type="qcurve" smooth="yes"/>
      <point x="75.0" y="997.0"/>
      <point x="601.0" y="1269.0"/>
      <point x="1180.0" y="1283.0" type="qcurve"/>
      <point x="1180.0" y="1204.0" type="line"/>
      <point x="631.9997851705" y="1200.9999987338"/>
      <point x="177.0" y="967.5845410628"/>
      <point x="177.0" y="739.0" type="qcurve" smooth="yes"/>
      <point x="177.0" y="512.2446236559"/>
      <point x="632.0" y="304.0"/>
      <point x="1180.0" y="304.0" type="qcurve"/>
    </contour>
    <contour>
      <point x="825.0" y="-24.0" type="line"/>
      <point x="825.0" y="15.0" type="line"/>
      <point x="1133.0" y="51.0" type="line"/>
      <point x="1133.0" y="270.0" type="line"/>
      <point x="1133.0" y="270.0" type="line"/>
      <point x="1134.0" y="745.0" type="line"/>
      <point x="1226.0" y="745.0" type="line"/>
      <point x="1227.0" y="271.0" type="line"/>
      <point x="1227.0" y="271.0" type="line"/>
      <point x="1227.0" y="51.0" type="line"/>
      <point x="1535.0" y="15.0" type="line"/>
      <point x="1535.0" y="-24.0" type="line"/>
    </contour>
    <contour>
      <point x="1134.0" y="745.0" type="line"/>
      <point x="1133.0" y="1236.0" type="line"/>
      <point x="1133.0" y="1236.0" type="line"/>
      <point x="1133.0" y="1434.0" type="line"/>
      <point x="825.0" y="1468.0" type="line"/>
      <point x="825.0" y="1520.0" type="line"/>
      <point x="1535.0" y="1520.0" type="line"/>
      <point x="1535.0" y="1468.0" type="line"/>
      <point x="1227.0" y="1434.0" type="line"/>
      <point x="1227.0" y="1236.0" type="line"/>
      <point x="1227.0" y="1236.0" type="line"/>
      <point x="1226.0" y="745.0" type="line"/>
    </contour>
  </outline>
</glyph>
<glyph name="Hard" format="2">
  <advance width="2002"/>
  <unicode hex="042A"/>
  <outline>
    <contour>
      <point x="781.0" y="878.0" type="line"/>
      <point x="792.0" y="867.0" type="line"/>
      <point x="1341.0" y="867.0" type="line" smooth="yes"/>
      <point x="1645.0" y="867.0"/>
      <point x="1957.0" y="651.0"/>
      <point x="1957.0" y="447.0" type="qcurve" smooth="yes"/>
      <point x="1957.0" y="233.0"/>
      <point x="1633.0" y="0.0"/>
      <point x="1349.0" y="0.0" type="qcurve" smooth="yes"/>
      <point x="433.0" y="0.0" type="line"/>
      <point x="433.0" y="48.0" type="line"/>
      <point x="701.0" y="83.0" type="line"/>
      <point x="703.0" y="772.0" type="line"/>
      <point x="701.0" y="1445.0" type="line"/>
      <point x="196.0" y="1445.0" type="line"/>
      <point x="152.0" y="1119.0" type="line"/>
      <point x="77.0" y="1119.0" type="line"/>
      <point x="77.0" y="1502.0" type="line"/>
      <point x="1060.0" y="1500.0" type="line"/>
      <point x="1060.0" y="1453.0" type="line"/>
      <point x="785.0" y="1419.0" type="line"/>
    </contour>
    <contour>
      <point x="781.0" y="793.0" type="line"/>
      <point x="783.0" y="83.0" type="line"/>
      <point x="805.0" y="68.0" type="line"/>
      <point x="1364.0" y="67.0" type="line" smooth="yes"/>
      <point x="1642.0" y="66.0"/>
      <point x="1866.0" y="253.0"/>
      <point x="1866.0" y="447.0" type="qcurve" smooth="yes"/>
      <point x="1866.0" y="626.0"/>
      <point x="1646.0" y="803.0"/>
      <point x="1367.0" y="803.0" type="qcurve" smooth="yes"/>
      <point x="790.0" y="803.0" type="line"/>
    </contour>
  </outline>
</glyph>
<glyph name="pe" format="2">
  <advance width="1839"/>
  <unicode hex="043F"/>
  <guideline x="302.0" y="625.0" angle="90.0" identifier="jHuxcyi1x5"/>
  <guideline x="953.0" y="554.0" angle="90.0" identifier="b1mHk7wgTR"/>
  <guideline x="627.0" y="553.0" angle="90.0" identifier="m4aYe0x4PZ"/>
  <outline>
    <contour>
      <point x="350.0" y="500.0" type="line"/>
      <point x="348.0" y="929.0" type="line"/>
      <point x="130.0" y="956.0" type="line"/>
      <point x="130.0" y="1000.0" type="line"/>
      <point x="1709.0" y="1000.0" type="line"/>
      <point x="1709.0" y="956.0" type="line"/>
      <point x="1491.0" y="929.0" type="line"/>
      <point x="1489.0" y="500.0" type="line"/>
      <point x="1491.0" y="71.0" type="line"/>
      <point x="1709.0" y="44.0" type="line"/>
      <point x="1709.0" y="0.0" type="line"/>
      <point x="1179.0" y="0.0" type="line"/>
      <point x="1179.0" y="44.0" type="line"/>
      <point x="1405.0" y="71.0" type="line"/>
      <point x="1407.0" y="500.0" type="line"/>
      <point x="1405.0" y="936.0" type="line"/>
      <point x="434.0" y="936.0" type="line"/>
      <point x="432.0" y="500.0" type="line"/>
      <point x="434.0" y="71.0" type="line"/>
      <point x="660.0" y="44.0" type="line"/>
      <point x="660.0" y="0.0" type="line"/>
      <point x="130.0" y="0.0" type="line"/>
      <point x="130.0" y="44.0" type="line"/>
      <point x="348.0" y="71.0" type="line"/>
    </contour>
  </outline>
</glyph>
<glyph name="che" format="2">
  <advance width="1667"/>
  <unicode hex="0447"/>
  <guideline x="302.0" y="625.0" angle="90.0" identifier="jHuxcyi1x5"/>
  <guideline x="953.0" y="554.0" angle="90.0" identifier="b1mHk7wgTR"/>
  <guideline x="627.0" y="553.0" angle="90.0" identifier="m4aYe0x4PZ"/>
  <outline>
    <contour>
      <point x="1317.0" y="500.0" type="line"/>
      <point x="1319.0" y="71.0" type="line"/>
      <point x="1537.0" y="44.0" type="line"/>
      <point x="1537.0" y="0.0" type="line"/>
      <point x="975.0" y="0.0" type="line"/>
      <point x="975.0" y="44.0" type="line"/>
      <point x="1233.0" y="71.0" type="line"/>
      <point x="1235.0" y="500.0" type="line"/>
      <point x="1233.0" y="929.0" type="line"/>
      <point x="1005.0" y="956.0" type="line"/>
      <point x="1005.0" y="1000.0" type="line"/>
      <point x="1537.0" y="1000.0" type="line"/>
      <point x="1537.0" y="956.0" type="line"/>
      <point x="1319.0" y="929.0" type="line"/>
    </contour>
    <contour>
      <point x="279.0" y="711.0" type="qcurve" smooth="yes"/>
      <point x="278.0" y="929.0" type="line"/>
      <point x="60.0" y="956.0" type="line"/>
      <point x="60.0" y="1000.0" type="line"/>
      <point x="592.0" y="1000.0" type="line"/>
      <point x="592.0" y="956.0" type="line"/>
      <point x="364.0" y="929.0" type="line"/>
      <point x="363.0" y="711.0" type="line" smooth="yes"/>
      <point x="362.0" y="591.0"/>
      <point x="547.0" y="498.0"/>
      <point x="784.0" y="498.0" type="qcurve" smooth="yes"/>
      <point x="918.0" y="498.0"/>
      <point x="1163.0" y="515.0"/>
      <point x="1276.0" y="551.0" type="qcurve"/>
      <point x="1276.0" y="488.0" type="line"/>
      <point x="1168.0" y="462.0"/>
      <point x="932.0" y="433.0"/>
      <point x="777.0" y="433.0" type="qcurve" smooth="yes"/>
      <point x="498.0" y="433.0"/>
      <point x="280.0" y="566.0"/>
    </contour>
  </outline>
</glyph>
<glyph name="shcha" format="2">
  <advance width="2411"/>
  <unicode hex="0449"/>
  <outline>
    <contour>
      <point x="2215.0" y="0.0" type="line"/>
      <point x="130.0" y="0.0" type="line"/>
      <point x="130.0" y="44.0" type="line"/>
      <point x="348.0" y="71.0" type="line"/>
      <point x="350.0" y="500.0" type="line"/>
      <point x="348.0" y="929.0" type="line"/>
      <point x="130.0" y="956.0" type="line"/>
      <point x="130.0" y="1000.0" type="line"/>
      <point x="642.0" y="1000.0" type="line"/>
      <point x="642.0" y="956.0" type="line"/>
      <point x="434.0" y="929.0" type="line"/>
      <point x="432.0" y="500.0" type="line"/>
      <point x="434.0" y="63.0" type="line"/>
      <point x="1168.0" y="63.0" type="line"/>
      <point x="1170.0" y="500.0" type="line"/>
      <point x="1169.0" y="929.0" type="line"/>
      <point x="960.0" y="956.0" type="line"/>
      <point x="960.0" y="1000.0" type="line"/>
      <point x="1464.0" y="1000.0" type="line"/>
      <point x="1464.0" y="956.0" type="line"/>
      <point x="1255.0" y="929.0" type="line"/>
      <point x="1252.0" y="500.0" type="line"/>
      <point x="1254.0" y="63.0" type="line"/>
      <point x="1988.0" y="63.0" type="line"/>
      <point x="1990.0" y="500.0" type="line"/>
      <point x="1988.0" y="929.0" type="line"/>
      <point x="1780.0" y="956.0" type="line"/>
      <point x="1780.0" y="1000.0" type="line"/>
      <point x="2292.0" y="1000.0" type="line"/>
      <point x="2292.0" y="956.0" type="line"/>
      <point x="2074.0" y="929.0" type="line"/>
      <point x="2072.0" y="500.0" type="line"/>
      <point x="2074.0" y="63.0" type="line"/>
      <point x="2331.0" y="63.0" type="line"/>
      <point x="2341.0" y="-318.0" type="line"/>
      <point x="2270.0" y="-318.0" type="line"/>
    </contour>
  </outline>
</glyph>
<glyph name="hard" format="2">
  <advance width="1672"/>
  <unicode hex="044A"/>
  <guideline x="302.0" y="625.0" angle="90.0" identifier="0glbwjr6f1"/>
  <guideline x="953.0" y="554.0" angle="90.0" identifier="41A0uQDzZV"/>
  <guideline x="627.0" y="553.0" angle="90.0" identifier="rA3XBl1QkZ"/>
  <guideline x="302.0" y="625.0" angle="90.0" identifier="9bXjTXCOsd"/>
  <guideline x="953.0" y="554.0" angle="90.0" identifier="70YHiu6Ygv"/>
  <guideline x="627.0" y="553.0" angle="90.0" identifier="lr0dX83lJL"/>
  <outline>
    <contour>
      <point x="653.0" y="936.0" type="line"/>
      <point x="178.0" y="936.0" type="line"/>
      <point x="133.0" y="735.0" type="line"/>
      <point x="70.0" y="735.0" type="line"/>
      <point x="70.0" y="1000.0" type="line"/>
      <point x="957.0" y="1000.0" type="line"/>
      <point x="957.0" y="956.0" type="line"/>
      <point x="739.0" y="929.0" type="line"/>
      <point x="737.0" y="500.0" type="line"/>
      <point x="739.0" y="63.0" type="line"/>
      <point x="1230.0" y="63.0" type="line" smooth="yes"/>
      <point x="1423.0" y="63.0"/>
      <point x="1566.0" y="209.0"/>
      <point x="1566.0" y="319.0" type="qcurve" smooth="yes"/>
      <point x="1566.0" y="417.0"/>
      <point x="1423.0" y="544.0"/>
      <point x="1230.0" y="544.0" type="qcurve" smooth="yes"/>
      <point x="696.0" y="544.0" type="line"/>
      <point x="696.0" y="604.0" type="line"/>
      <point x="1237.0" y="604.0" type="line" smooth="yes"/>
      <point x="1462.0" y="604.0"/>
      <point x="1652.0" y="450.0"/>
      <point x="1652.0" y="319.0" type="qcurve" smooth="yes"/>
      <point x="1652.0" y="175.0"/>
      <point x="1462.0" y="0.0"/>
      <point x="1237.0" y="0.0" type="qcurve" smooth="yes"/>
      <point x="435.0" y="0.0" type="line"/>
      <point x="435.0" y="44.0" type="line"/>
      <point x="653.0" y="71.0" type="line"/>
      <point x="655.0" y="500.0" type="line"/>
    </contour>
  </outline>
</glyph>
<glyph name="lje" format="2">
  <advance width="2152"/>
  <unicode hex="0459"/>
  <guideline x="302.0" y="625.0" angle="90.0" identifier="jHuxcyi1x5"/>
  <guideline x="953.0" y="554.0" angle="90.0" identifier="b1mHk7wgTR"/>
  <guideline x="627.0" y="553.0" angle="90.0" identifier="m4aYe0x4PZ"/>
  <guideline x="302.0" y="625.0" angle="90.0" identifier="vLcWUVIRLn"/>
  <guideline x="953.0" y="554.0" angle="90.0" identifier="6dzOxXKOwA"/>
  <guideline x="627.0" y="553.0" angle="90.0" identifier="mJzxvRVyB1"/>
  <guideline x="899.0" y="569.0" angle="0" identifier="NbdfSyw2GO"/>
  <outline>
    <contour>
      <point x="1134.0" y="936.0" type="line"/>
      <point x="1135.0" y="500.0" type="line"/>
      <point x="1133.0" y="71.0" type="line"/>
      <point x="915.0" y="44.0" type="line"/>
      <point x="915.0" y="0.0" type="line"/>
      <point x="1717.0" y="0.0" type="line" smooth="yes"/>
      <point x="1942.0" y="0.0"/>
      <point x="2132.0" y="175.0"/>
      <point x="2132.0" y="319.0" type="qcurve" smooth="yes"/>
      <point x="2132.0" y="450.0"/>
      <point x="1942.0" y="604.0"/>
      <point x="1717.0" y="604.0" type="qcurve" smooth="yes"/>
      <point x="1176.0" y="604.0" type="line"/>
      <point x="1176.0" y="544.0" type="line"/>
      <point x="1710.0" y="544.0" type="line" smooth="yes"/>
      <point x="1903.0" y="544.0"/>
      <point x="2046.0" y="417.0"/>
      <point x="2046.0" y="319.0" type="qcurve" smooth="yes"/>
      <point x="2046.0" y="209.0"/>
      <point x="1903.0" y="63.0"/>
      <point x="1710.0" y="63.0" type="qcurve" smooth="yes"/>
      <point x="1219.0" y="63.0" type="line"/>
      <point x="1217.0" y="500.0" type="line"/>
      <point x="1219.0" y="929.0" type="line"/>
      <point x="1437.0" y="956.0" type="line"/>
      <point x="1437.0" y="1000.0" type="line"/>
      <point x="181.0" y="1000.0" type="line"/>
      <point x="181.0" y="956.0" type="line"/>
      <point x="409.0" y="929.0" type="line"/>
      <point x="372.0" y="501.0" type="line" smooth="yes"/>
      <point x="350.0356896003" y="253.4901297202"/>
      <point x="235.0" y="86.0"/>
      <point x="135.0" y="86.0" type="qcurve" smooth="yes"/>
      <point x="122.0" y="86.0"/>
      <point x="82.0" y="90.0"/>
      <point x="60.0" y="97.0" type="qcurve"/>
      <point x="60.0" y="-2.0" type="line"/>
      <point x="81.0" y="-10.0"/>
      <point x="150.0" y="-17.0"/>
      <point x="171.0" y="-17.0" type="qcurve" smooth="yes"/>
      <point x="292.0275862069" y="-17.0"/>
      <point x="406.0" y="169.0"/>
      <point x="432.0" y="475.0" type="qcurve" smooth="yes"/>
      <point x="471.0" y="936.0" type="line"/>
    </contour>
  </outline>
</glyph>
<glyph name="gheup" format="2">
  <advance width="1412"/>
  <unicode hex="0491"/>
  <guideline x="302.0" y="625.0" angle="90.0" identifier="jHuxcyi1x5"/>
  <guideline x="953.0" y="554.0" angle="90.0" identifier="b1mHk7wgTR"/>
  <guideline x="627.0" y="553.0" angle="90.0" identifier="m4aYe0x4PZ"/>
  <outline>
    <contour>
      <point x="1214.0" y="1000.0" type="line"/>
      <point x="1259.0" y="1233.0" type="line"/>
      <point x="1322.0" y="1233.0" type="line"/>
      <point x="1322.0" y="936.0" type="line"/>
      <point x="434.0" y="936.0" type="line"/>
      <point x="432.0" y="500.0" type="line"/>
      <point x="434.0" y="71.0" type="line"/>
      <point x="670.0" y="44.0" type="line"/>
      <point x="670.0" y="0.0" type="line"/>
      <point x="130.0" y="0.0" type="line"/>
      <point x="130.0" y="44.0" type="line"/>
      <point x="348.0" y="71.0" type="line"/>
      <point x="350.0" y="500.0" type="line"/>
      <point x="348.0" y="929.0" type="line"/>
      <point x="130.0" y="956.0" type="line"/>
      <point x="130.0" y="1000.0" type="line"/>
    </contour>
  </outline>
</glyph>
<glyph name="Kaverticalstrokecyr" format="2">
  <advance width="1980"/>
  <unicode hex="049C"/>
  <guideline x="480.0" y="796.0" angle="90.0" identifier="LxfLwWU0sJ"/>
  <outline>
    <contour>
      <point x="136.0" y="0.0" type="line"/>
      <point x="136.0" y="48.0" type="line"/>
      <point x="404.0" y="83.0" type="line"/>
      <point x="406.0" y="754.0" type="line"/>
      <point x="404.0" y="1419.0" type="line"/>
      <point x="136.0" y="1453.0" type="line"/>
      <point x="136.0" y="1500.0" type="line"/>
      <point x="773.0" y="1500.0" type="line"/>
      <point x="773.0" y="1453.0" type="line"/>
      <point x="488.0" y="1419.0" type="line"/>
      <point x="486.0" y="754.0" type="line"/>
      <point x="488.0" y="83.0" type="line"/>
      <point x="763.0" y="48.0" type="line"/>
      <point x="763.0" y="0.0" type="line"/>
    </contour>
    <contour>
      <point x="735.0" y="754.0" type="line"/>
      <point x="735.0" y="816.0" type="line"/>
      <point x="861.0" y="815.0" type="line"/>
      <point x="1567.0" y="1433.0" type="line"/>
      <point x="1325.0" y="1453.0" type="line"/>
      <point x="1325.0" y="1500.0" type="line"/>
      <point x="1953.0" y="1500.0" type="line"/>
      <point x="1953.0" y="1453.0" type="line"/>
      <point x="1708.0" y="1433.0" type="line"/>
      <point x="908.0" y="798.0" type="line"/>
      <point x="881.0" y="754.0" type="line"/>
    </contour>
    <contour>
      <point x="851.0" y="760.0" type="line"/>
      <point x="910.0" y="797.0" type="line"/>
      <point x="1806.0" y="83.0" type="line"/>
      <point x="2074.0" y="48.0" type="line"/>
      <point x="2074.0" y="0.0" type="line"/>
      <point x="1402.0" y="0.0" type="line"/>
      <point x="1402.0" y="48.0" type="line"/>
      <point x="1668.0" y="83.0" type="line"/>
    </contour>
    <contour>
      <point x="770.0" y="1185.0" type="line"/>
      <point x="770.0" y="329.0" type="line"/>
      <point x="700.0" y="329.0" type="line"/>
      <point x="700.0" y="1185.0" type="line"/>
    </contour>
  </outline>
</glyph>
<glyph name="Endescender" format="2">
  <advance width="2321"/>
  <unicode hex="04A2"/>
  <outline>
    <contour>
      <point x="2088.0" y="0.0" type="line"/>
      <point x="1535.0" y="0.0" type="line"/>
      <point x="1535.0" y="48.0" type="line"/>
      <point x="1810.0" y="83.0" type="line"/>
      <point x="1812.0" y="754.0" type="line"/>
      <point x="1810.0" y="1419.0" type="line"/>
      <point x="1535.0" y="1453.0" type="line"/>
      <point x="1535.0" y="1500.0" type="line"/>
      <point x="2162.0" y="1500.0" type="line"/>
      <point x="2162.0" y="1453.0" type="line"/>
      <point x="1894.0" y="1419.0" type="line"/>
      <point x="1892.0" y="754.0" type="line"/>
      <point x="1894.0" y="65.0" type="line"/>
      <point x="2203.0" y="65.0" type="line"/>
      <point x="2213.0" y="-338.0" type="line"/>
      <point x="2151.0" y="-338.0" type="line"/>
    </contour>
    <contour>
      <point x="136.0" y="0.0" type="line"/>
      <point x="136.0" y="48.0" type="line"/>
      <point x="404.0" y="83.0" type="line"/>
      <point x="406.0" y="754.0" type="line"/>
      <point x="404.0" y="1419.0" type="line"/>
      <point x="136.0" y="1453.0" type="line"/>
      <point x="136.0" y="1500.0" type="line"/>
      <point x="763.0" y="1500.0" type="line"/>
      <point x="763.0" y="1453.0" type="line"/>
      <point x="488.0" y="1419.0" type="line"/>
      <point x="486.0" y="754.0" type="line"/>
      <point x="488.0" y="83.0" type="line"/>
      <point x="763.0" y="48.0" type="line"/>
      <point x="763.0" y="0.0" type="line"/>
    </contour>
    <contour>
      <point x="444.0" y="756.0" type="line"/>
      <point x="444.0" y="818.0" type="line"/>
      <point x="1163.0" y="810.0" type="line"/>
      <point x="1844.0" y="818.0" type="line"/>
      <point x="1844.0" y="756.0" type="line"/>
      <point x="1163.0" y="756.0" type="line"/>
    </contour>
  </outline>
</glyph>
<glyph name="tedescender-cy" format="2">
  <advance width="1608"/>
  <unicode hex="04AD"/>
  <guideline x="302.0" y="625.0" angle="90.0" identifier="0glbwjr6f1"/>
  <guideline x="953.0" y="554.0" angle="90.0" identifier="41A0uQDzZV"/>
  <guideline x="627.0" y="553.0" angle="90.0" identifier="rA3XBl1QkZ"/>
  <outline>
    <contour>
      <point x="846.0" y="63.0" type="line"/>
      <point x="1177.0" y="63.0" type="line"/>
      <point x="1187.0" y="-318.0" type="line"/>
      <point x="1116.0" y="-318.0" type="line"/>
      <point x="1061.0" y="0.0" type="line"/>
      <point x="533.0" y="0.0" type="line"/>
      <point x="533.0" y="44.0" type="line"/>
      <point x="761.0" y="71.0" type="line"/>
      <point x="763.0" y="500.0" type="line"/>
      <point x="761.0" y="936.0" type="line"/>
      <point x="188.0" y="936.0" type="line"/>
      <point x="143.0" y="735.0" type="line"/>
      <point x="80.0" y="735.0" type="line"/>
      <point x="80.0" y="1000.0" type="line"/>
      <point x="1528.0" y="1000.0" type="line"/>
      <point x="1528.0" y="735.0" type="line"/>
      <point x="1465.0" y="735.0" type="line"/>
      <point x="1420.0" y="936.0" type="line"/>
      <point x="847.0" y="936.0" type="line"/>
      <point x="845.0" y="500.0" type="line"/>
    </contour>
  </outline>
</glyph>
<glyph name="Obarcyr" format="2">
  <advance width="2181"/>
  <unicode hex="04E8"/>
  <guideline x="212.0" y="786.0" angle="90.0" identifier="UtNSclIhRG"/>
  <guideline x="1248.0" y="730.0" angle="90.0" identifier="hwb5F7EShy"/>
  <guideline x="176.0" y="804.0" angle="90.0" identifier="CC6biuYdY2"/>
  <guideline x="1489.0" y="880.0" angle="90.0" identifier="5SLpVGRhqp"/>
  <outline>
    <contour>
      <point x="148.0" y="743.0" type="line"/>
      <point x="148.0" y="805.0" type="line"/>
      <point x="1094.0" y="797.0" type="line"/>
      <point x="2034.0" y="805.0" type="line"/>
      <point x="2034.0" y="742.0" type="line"/>
      <point x="1094.0" y="742.0" type="line"/>
    </contour>
    <contour>
      <point x="101.0" y="737.0" type="qcurve" smooth="yes"/>
      <point x="101.0" y="1068.0"/>
      <point x="648.0" y="1520.0"/>
      <point x="1090.0" y="1520.0" type="qcurve" smooth="yes"/>
      <point x="1550.0" y="1520.0"/>
      <point x="2080.0" y="1097.0"/>
      <point x="2080.0" y="752.0" type="qcurve" smooth="yes"/>
      <point x="2080.0" y="423.0"/>
      <point x="1538.0" y="-31.0"/>
      <point x="1095.0" y="-31.0" type="qcurve" smooth="yes"/>
      <point x="647.0" y="-31.0"/>
      <point x="101.0" y="386.0"/>
    </contour>
    <contour>
      <point x="194.0" y="779.0" type="qcurve" smooth="yes"/>
      <point x="194.0" y="427.0"/>
      <point x="684.5482164002" y="33.0"/>
      <point x="1093.0" y="33.0" type="qcurve" smooth="yes"/>
      <point x="1514.9852327335" y="33.0"/>
      <point x="1988.0" y="415.0"/>
      <point x="1988.0" y="749.0" type="qcurve" smooth="yes"/>
      <point x="1988.0" y="1055.0"/>
      <point x="1524.0059279526001" y="1456.0"/>
      <point x="1093.0" y="1456.0" type="qcurve" smooth="yes"/>
      <point x="669.5414499281" y="1456.0"/>
      <point x="194.0" y="1071.0"/>
    </contour>
  </outline>
</glyph>
<glyph name="daggerdbl" format="2">
  <advance width="1062"/>
  <unicode hex="2021"/>
  <outline>
    <contour>
      <point x="522.0" y="-540.0" type="line"/>
      <point x="484.0" y="-58.0" type="line"/>
      <point x="498.0" y="550.0" type="line"/>
      <point x="496.0" y="830.0" type="line"/>
      <point x="484.0" y="1468.0" type="line"/>
      <point x="497.0" y="1506.0" type="line"/>
      <point x="569.0" y="1506.0" type="line"/>
      <point x="580.0" y="1468.0" type="line"/>
      <point x="566.0" y="830.0" type="line"/>
      <point x="568.0" y="550.0" type="line"/>
      <point x="580.0" y="-58.0" type="line"/>
      <point x="552.0" y="-540.0" type="line"/>
    </contour>
    <contour>
      <point x="60.0" y="890.0" type="line"/>
      <point x="60.0" y="962.0" type="line"/>
      <point x="533.0" y="954.0" type="line"/>
      <point x="1002.0" y="962.0" type="line"/>
      <point x="1002.0" y="890.0" type="line"/>
      <point x="533.0" y="894.0" type="line"/>
    </contour>
    <contour>
      <point x="60.0" y="460.0" type="line"/>
      <point x="60.0" y="532.0" type="line"/>
      <point x="533.0" y="524.0" type="line"/>
      <point x="1002.0" y="532.0" type="line"/>
      <point x="1002.0" y="460.0" type="line"/>
      <point x="533.0" y="464.0" type="line"/>
    </contour>
  </outline>
</glyph>
<glyph name="minute" format="2">
  <advance width="545"/>
  <unicode hex="2032"/>
  <outline>
    <contour>
      <point x="132.0" y="977.0" type="line"/>
      <point x="392.0" y="1406.0" type="line" smooth="yes"/>
      <point x="435.0" y="1481.0"/>
      <point x="496.0" y="1539.0"/>
      <point x="525.0" y="1522.0" type="qcurve" smooth="yes"/>
      <point x="552.0" y="1506.0"/>
      <point x="521.0" y="1424.0"/>
      <point x="480.0" y="1373.0" type="qcurve" smooth="yes"/>
      <point x="187.0" y="999.0" type="line"/>
    </contour>
  </outline>
</glyph>
<glyph name="hryvnia" format="2">
  <advance width="1656"/>
  <unicode hex="20B4"/>
  <outline>
    <contour>
      <point x="1457.0" y="247.0" type="line"/>
      <point x="1380.2267381084" y="78.5237330955"/>
      <point x="1072.2244897959" y="-62.0"/>
      <point x="837.0" y="-62.0" type="qcurve" smooth="yes"/>
      <point x="563.2403846154" y="-62.0"/>
      <point x="271.0" y="175.0"/>
      <point x="271.0" y="365.0" type="qcurve" smooth="yes"/>
      <point x="271.0" y="427.0"/>
      <point x="305.5570498088" y="538.7489977017"/>
      <point x="332.0" y="580.0" type="qcurve"/>
      <point x="343.0" y="612.0" type="line"/>
      <point x="394.7583557658" y="676.6979447073"/>
      <point x="590.2556607070001" y="754.10999356"/>
      <point x="745.0" y="788.0" type="qcurve" smooth="yes"/>
      <point x="915.9244666429" y="830.5311777674"/>
      <point x="1140.5744545938" y="872.7044823568"/>
      <point x="1192.0" y="911.0" type="qcurve"/>
      <point x="1213.0" y="943.0" type="line"/>
      <point x="1257.8478284201" y="992.0197194359"/>
      <point x="1300.0" y="1107.0"/>
      <point x="1300.0" y="1168.0" type="qcurve" smooth="yes"/>
      <point x="1300.0" y="1328.0"/>
      <point x="1075.0" y="1481.0"/>
      <point x="851.0" y="1481.0" type="qcurve" smooth="yes"/>
      <point x="696.0" y="1481.0"/>
      <point x="446.0" y="1392.0"/>
      <point x="357.0" y="1314.0" type="qcurve"/>
      <point x="319.0" y="1366.0" type="line"/>
      <point x="424.0" y="1462.0"/>
      <point x="709.0" y="1540.0"/>
      <point x="854.0" y="1540.0" type="qcurve" smooth="yes"/>
      <point x="1094.0" y="1540.0"/>
      <point x="1367.0" y="1361.0"/>
      <point x="1367.0" y="1174.0" type="qcurve" smooth="yes"/>
      <point x="1367.0" y="1096.0"/>
      <point x="1320.0" y="965.0"/>
      <point x="1292.0" y="932.0" type="qcurve"/>
      <point x="1293.0" y="900.0" type="line"/>
      <point x="1248.7089353634" y="866.8170450856"/>
      <point x="1134.3108386369" y="831.5362521696"/>
      <point x="909.0" y="777.0" type="qcurve" smooth="yes"/>
      <point x="717.9788614598" y="732.3997017627"/>
      <point x="472.262393289" y="660.3504672393"/>
      <point x="419.0" y="601.0" type="qcurve"/>
      <point x="400.0" y="568.0" type="line"/>
      <point x="369.2481886478" y="531.0602358098"/>
      <point x="345.0" y="423.0"/>
      <point x="345.0" y="368.0" type="qcurve" smooth="yes"/>
      <point x="345.0" y="174.0"/>
      <point x="618.6851311953001" y="1.0"/>
      <point x="838.0" y="1.0" type="qcurve" smooth="yes"/>
      <point x="1049.2325581395" y="1.0"/>
      <point x="1323.1883508536998" y="122.47401631509999"/>
      <point x="1398.0" y="283.0" type="qcurve"/>
    </contour>
    <contour>
      <point x="120.0" y="622.0" type="line"/>
      <point x="1535.0" y="622.0" type="line"/>
      <point x="1505.0" y="561.0" type="line"/>
      <point x="144.0" y="561.0" type="line"/>
    </contour>
    <contour>
      <point x="144.0" y="949.0" type="line"/>
      <point x="1505.0" y="949.0" type="line"/>
      <point x="1536.0" y="888.0" type="line"/>
      <point x="120.0" y="888.0" type="line"/>
    </contour>
  </outline>
</glyph>
<glyph name="manat" format="2">
  <advance width="1446"/>
  <unicode hex="20BC"/>
  <outline>
    <contour>
      <point x="1437.0" y="28.0" type="line"/>
      <point x="1437.0" y="0.0" type="line"/>
      <point x="1012.0" y="0.0" type="line"/>
      <point x="1012.0" y="28.0" type="line"/>
      <point x="1189.0" y="57.0" type="line"/>
      <point x="1194.0" y="506.0" type="line"/>
      <point x="1190.0" y="1013.0" type="line" smooth="yes"/>
      <point x="1188.0" y="1205.0"/>
      <point x="937.0" y="1373.0"/>
      <point x="724.0" y="1373.0" type="qcurve" smooth="yes"/>
      <point x="539.0" y="1373.0"/>
      <point x="271.0" y="1190.0"/>
      <point x="270.0" y="993.0" type="qcurve" smooth="yes"/>
      <point x="268.0" y="506.0" type="line"/>
      <point x="270.0" y="57.0" type="line"/>
      <point x="468.0" y="28.0" type="line"/>
      <point x="468.0" y="0.0" type="line"/>
      <point x="15.0" y="0.0" type="line"/>
      <point x="15.0" y="28.0" type="line"/>
      <point x="193.0" y="57.0" type="line"/>
      <point x="195.0" y="506.0" type="line"/>
      <point x="193.0" y="907.0" type="line" smooth="yes"/>
      <point x="192.0" y="1167.0"/>
      <point x="487.0" y="1421.0"/>
      <point x="729.0" y="1421.0" type="qcurve" smooth="yes"/>
      <point x="1018.0" y="1421.0"/>
      <point x="1264.0" y="1188.0"/>
      <point x="1264.0" y="949.0" type="qcurve" smooth="yes"/>
      <point x="1262.0" y="506.0" type="line"/>
      <point x="1264.0" y="57.0" type="line"/>
    </contour>
    <contour>
      <point x="703.0" y="260.0" type="line"/>
      <point x="702.0" y="662.0" type="line"/>
      <point x="703.0" y="1350.0" type="line"/>
      <point x="698.0" y="1540.0" type="line"/>
      <point x="764.0" y="1600.0" type="line"/>
      <point x="759.0" y="1350.0" type="line"/>
      <point x="761.0" y="762.0" type="line"/>
      <point x="764.0" y="320.0" type="line"/>
    </contour>
  </outline>
</glyph>
<glyph name="De.bgr" format="2">
  <advance width="2090"/>
  <outline>
    <contour>
      <point x="1783.0" y="0.0" type="line"/>
      <point x="1440.0" y="665.0" type="line"/>
      <point x="1033.0" y="1465.0" type="line"/>
      <point x="663.0" y="682.0" type="line"/>
      <point x="345.0" y="0.0" type="line"/>
      <point x="234.0" y="0.0" type="line"/>
      <point x="582.0" y="692.0" type="line"/>
      <point x="993.0" y="1507.0" type="line"/>
      <point x="1080.0" y="1507.0" type="line"/>
      <point x="1509.0" y="700.0" type="line"/>
      <point x="1890.0" y="0.0" type="line"/>
    </contour>
    <contour>
      <point x="2018.0" y="-338.0" type="line"/>
      <point x="1955.0" y="0.0" type="line"/>
      <point x="134.0" y="0.0" type="line"/>
      <point x="71.0" y="-338.0" type="line"/>
      <point x="10.0" y="-338.0" type="line"/>
      <point x="20.0" y="65.0" type="line"/>
      <point x="2070.0" y="65.0" type="line"/>
      <point x="2080.0" y="-338.0" type="line"/>
    </contour>
  </outline>
</glyph>
<glyph name="brevecombstack.case" format="2">
  <advance width="1024"/>
  <outline>
    <contour>
      <point x="745.0" y="1815.0" type="qcurve"/>
      <point x="775.0" y="1826.0" type="line"/>
      <point x="759.0" y="1746.0"/>
      <point x="617.0" y="1630.0"/>
      <point x="513.0" y="1630.0" type="qcurve" smooth="yes"/>
      <point x="408.0" y="1630.0"/>
      <point x="267.0" y="1735.0"/>
      <point x="249.0" y="1824.0" type="qcurve"/>
      <point x="282.0" y="1816.0" type="line"/>
      <point x="308.0" y="1760.0"/>
      <point x="425.0" y="1697.0"/>
      <point x="514.0" y="1697.0" type="qcurve" smooth="yes"/>
      <point x="604.0" y="1697.0"/>
      <point x="724.0" y="1761.0"/>
    </contour>
  </outline>
</glyph>
<glyph name="diagonalbarO" format="2">
  <advance width="623"/>
  <outline>
    <contour>
      <point x="-127.0" y="-146.0" type="line"/>
      <point x="-31.0" y="78.0" type="line"/>
      <point x="-26.0" y="76.0" type="line"/>
      <point x="317.0" y="856.0" type="line"/>
      <point x="385.0" y="820.0" type="line"/>
      <point x="57.0" y="60.0" type="line"/>
      <point x="63.0" y="59.0" type="line"/>
      <point x="-15.0" y="-135.0" type="line"/>
    </contour>
    <contour>
      <point x="638.0" y="1618.0" type="line"/>
      <point x="743.0" y="1618.0" type="line"/>
      <point x="659.0" y="1433.0" type="line"/>
      <point x="652.0" y="1434.0" type="line"/>
      <point x="385.0" y="820.0" type="line"/>
      <point x="317.0" y="856.0" type="line"/>
      <point x="572.0" y="1449.0" type="line"/>
      <point x="566.0" y="1451.0" type="line"/>
    </contour>
  </outline>
</glyph>
<glyph name="hookabovecomb.case" format="2">
  <advance width="1024"/>
  <outline>
    <contour>
      <point x="459.0" y="1560.0" type="line"/>
      <point x="459.0" y="1743.0" type="line"/>
      <point x="510.0" y="1774.0" type="line"/>
      <point x="536.0" y="1769.0"/>
      <point x="609.0" y="1763.0"/>
      <point x="653.0" y="1763.0" type="qcurve" smooth="yes"/>
      <point x="734.0" y="1763.0"/>
      <point x="840.0" y="1835.0"/>
      <point x="840.0" y="1891.0" type="qcurve" smooth="yes"/>
      <point x="840.0" y="1955.0"/>
      <point x="707.0" y="1999.0"/>
      <point x="597.0" y="1999.0" type="qcurve" smooth="yes"/>
      <point x="543.0" y="1999.0"/>
      <point x="413.0" y="1968.0"/>
      <point x="355.0" y="1946.0" type="qcurve"/>
      <point x="335.0" y="1996.0" type="line"/>
      <point x="387.0" y="2029.0"/>
      <point x="532.0" y="2071.0"/>
      <point x="606.0" y="2071.0" type="qcurve" smooth="yes"/>
      <point x="764.0" y="2071.0"/>
      <point x="941.0" y="1988.0"/>
      <point x="941.0" y="1884.0" type="qcurve" smooth="yes"/>
      <point x="941.0" y="1792.0"/>
      <point x="780.0" y="1697.0"/>
      <point x="661.0" y="1697.0" type="qcurve" smooth="yes"/>
      <point x="608.0" y="1697.0"/>
      <point x="565.0" y="1701.0"/>
      <point x="547.0" y="1706.0" type="qcurve"/>
      <point x="547.0" y="1560.0" type="line"/>
    </contour>
  </outline>
</glyph>
<glyph name="horizontalbarlc" format="2">
  <advance width="833"/>
  <outline>
    <contour>
      <point x="348.0" y="727.0" type="line"/>
      <point x="28.0" y="727.0" type="line"/>
      <point x="35.0" y="777.0" type="line"/>
      <point x="390.0" y="777.0" type="line"/>
      <point x="764.0" y="777.0" type="line"/>
      <point x="764.0" y="727.0" type="line"/>
    </contour>
  </outline>
</glyph>
<glyph name="one.tab" format="2">
  <advance width="1500"/>
  <outline>
    <contour>
      <point x="359.0" y="0.0" type="line"/>
      <point x="359.0" y="48.0" type="line"/>
      <point x="724.0" y="76.0" type="line"/>
      <point x="724.0" y="754.0" type="line"/>
      <point x="723.0" y="1410.0" type="line"/>
      <point x="357.0" y="1416.0" type="line"/>
      <point x="357.0" y="1465.0" type="line"/>
      <point x="786.0" y="1509.0" type="line"/>
      <point x="799.0" y="1491.0" type="line"/>
      <point x="797.0" y="754.0" type="line"/>
      <point x="797.0" y="76.0" type="line"/>
      <point x="1161.0" y="48.0" type="line"/>
      <point x="1161.0" y="0.0" type="line"/>
    </contour>
  </outline>
</glyph>
<glyph name="seven.lf" format="2">
  <advance width="1227"/>
  <outline>
    <contour>
      <point x="107.0" y="1168.0" type="line"/>
      <point x="107.0" y="1500.0" type="line"/>
      <point x="1166.0" y="1500.0" type="line"/>
      <point x="1166.0" y="1425.0" type="line"/>
      <point x="771.0" y="704.0" type="line"/>
      <point x="265.0" y="-82.0" type="line"/>
      <point x="283.0" y="-82.0" type="line"/>
      <point x="283.0" y="-40.0" type="line"/>
      <point x="705.0" y="726.0" type="line"/>
      <point x="1050.0" y="1417.0" type="line"/>
      <point x="1041.0" y="1435.0" type="line"/>
      <point x="186.0" y="1435.0" type="line"/>
      <point x="156.0" y="1168.0" type="line"/>
    </contour>
  </outline>
</glyph>
